# xmcd
#
# Track frame offsets: 
#        150
#        35502
#        78873
#        114204
#        146139
#        179172
#        211684
#        248904
#        285629
#        313675
#
# Disc length: 4677 seconds
#
# Revision: 1
# Processed by: cddbd v1.5.2PL0 Copyright (c) Steve Scherf et al.
# Submitted via: ExactAudioCopy v0.95b4
#
DISCID=8b12430a
DTITLE=Various Artist - Platipus Ten [CD1]
DYEAR=2006
DGENRE=Trance
TTITLE0=Art Of Trance featuring Natacha Atlas - Persia (Original)
TTITLE1=Union Jack - Two Full Moons And A Trout 2006 (Luke Chable Remi
TTITLE1=x)
TTITLE2=Moogwai - Nordsong (Chab's Detuned 2006 Mix)
TTITLE3=Art Of Trance - Mongoose (tektonik^ Remix)
TTITLE4=Adam White and Anthony Dean - OutOf Knowwhere (Michael Parsberg
TTITLE4=and Michael Splint Remix)
TTITLE5=Star - Rock Rose (DDH Remix)
TTITLE6=Moogwai - Viola 2005 (tektonik^ Remix)
TTITLE7=Pob and Boyd - Luna (Luzon Remix Edit)
TTITLE8=Albion - Air (Oliver Lieb Remix)
TTITLE9=Moogwai - Labyrinth (Part 2)
EXTD=
EXTT0=
EXTT1=
EXTT2=
EXTT3=
EXTT4=
EXTT5=
EXTT6=
EXTT7=
EXTT8=
EXTT9=
PLAYORDER=
